<svg width="154" height="30" viewBox="0 0 154 30" fill="none" xmlns="http://www.w3.org/2000/svg">
<path d="M0 21.8043C0 20.6353 0.219386 19.5426 0.658157 18.526C1.12274 17.4841 1.74218 16.582 2.51648 15.8196C3.29079 15.0318 4.18123 14.4091 5.18783 13.9517C6.22023 13.4943 7.31716 13.2656 8.47861 13.2656C9.25291 13.2656 9.96269 13.3672 10.6079 13.5705C11.2532 13.7484 11.8081 13.9771 12.2727 14.2567C12.7373 14.5362 13.1115 14.8285 13.3954 15.1334C13.6793 15.4384 13.8729 15.7052 13.9762 15.9339L14.131 13.6849H17.3057V29.6188H13.9762V27.5985C13.8471 27.8018 13.6406 28.0432 13.3567 28.3227C13.0728 28.6023 12.6986 28.8691 12.234 29.1233C11.7952 29.352 11.2661 29.5553 10.6467 29.7332C10.0272 29.9111 9.31744 30 8.51733 30C7.27844 30 6.12989 29.784 5.07168 29.352C4.03928 28.8945 3.14883 28.2973 2.40034 27.5604C1.65185 26.798 1.05821 25.9212 0.619442 24.9301C0.206481 23.939 0 22.8971 0 21.8043ZM3.3295 21.6137C3.3295 22.3507 3.45855 23.0368 3.71665 23.6722C4.00056 24.3075 4.37481 24.8539 4.83939 25.3113C5.30397 25.7687 5.85889 26.1372 6.50414 26.4168C7.14939 26.6709 7.85917 26.798 8.63347 26.798C9.40778 26.798 10.1176 26.6709 10.7628 26.4168C11.4339 26.1372 12.0017 25.7687 12.4663 25.3113C12.9567 24.8285 13.3309 24.2821 13.589 23.6722C13.8471 23.0368 13.9762 22.3507 13.9762 21.6137C13.9762 20.8767 13.8471 20.2033 13.589 19.5934C13.3309 18.9581 12.9567 18.4117 12.4663 17.9543C12.0017 17.4968 11.4339 17.141 10.7628 16.8869C10.1176 16.6074 9.40778 16.4676 8.63347 16.4676C7.85917 16.4676 7.14939 16.6074 6.50414 16.8869C5.85889 17.141 5.30397 17.4968 4.83939 17.9543C4.37481 18.4117 4.00056 18.9581 3.71665 19.5934C3.45855 20.2033 3.3295 20.8767 3.3295 21.6137Z" fill="#717A86"/>
<path d="M39.2605 21.69C39.2605 22.8844 39.054 23.9898 38.641 25.0064C38.2281 26.0229 37.6473 26.8996 36.8988 27.6366C36.1503 28.3736 35.247 28.9581 34.1888 29.3901C33.1564 29.7967 32.0207 30 30.7819 30C30.1366 30 29.5172 29.9238 28.9235 29.7713C28.3557 29.6442 27.8266 29.4663 27.3362 29.2376C26.8458 28.9835 26.4199 28.7166 26.0586 28.4371C25.6973 28.1321 25.4263 27.8272 25.2456 27.5222C25.2456 27.6493 25.2456 27.7891 25.2456 27.9415C25.2714 28.0686 25.2843 28.1957 25.2843 28.3227V29.6188H21.9548V0H25.2843V16.0102C25.4908 15.7052 25.7618 15.4003 26.0973 15.0953C26.4587 14.7649 26.8716 14.4727 27.3362 14.2186C27.8266 13.939 28.3686 13.7103 28.9622 13.5324C29.5559 13.3545 30.214 13.2656 30.9367 13.2656C32.1756 13.2656 33.2983 13.4689 34.3049 13.8755C35.3373 14.2567 36.2149 14.8158 36.9376 15.5527C37.686 16.2643 38.2539 17.141 38.641 18.183C39.054 19.2249 39.2605 20.3939 39.2605 21.69ZM35.66 21.6137C35.66 20.8767 35.5438 20.2033 35.3115 19.5934C35.0792 18.9581 34.7437 18.4117 34.3049 17.9543C33.8662 17.4968 33.3371 17.141 32.7176 16.8869C32.0982 16.6074 31.4013 16.4676 30.627 16.4676C29.8527 16.4676 29.13 16.6074 28.4589 16.8869C27.8137 17.141 27.2588 17.4968 26.7942 17.9543C26.3296 18.4117 25.9554 18.9581 25.6715 19.5934C25.4134 20.2033 25.2843 20.8767 25.2843 21.6137C25.2843 22.3507 25.4134 23.0368 25.6715 23.6722C25.9554 24.3075 26.3296 24.8539 26.7942 25.3113C27.2588 25.7687 27.8137 26.1372 28.4589 26.4168C29.13 26.6709 29.8527 26.798 30.627 26.798C31.4013 26.798 32.0982 26.6709 32.7176 26.4168C33.3371 26.1372 33.8662 25.7687 34.3049 25.3113C34.7437 24.8285 35.0792 24.2821 35.3115 23.6722C35.5438 23.0368 35.66 22.3507 35.66 21.6137Z" fill="#717A86"/>
<path d="M56.5676 27.7509C55.7933 28.4371 54.8513 28.9835 53.7414 29.3901C52.6316 29.7967 51.496 30 50.3345 30C49.1472 30 48.0245 29.784 46.9663 29.352C45.9339 28.8945 45.0305 28.2973 44.2562 27.5604C43.4819 26.798 42.8625 25.9085 42.3979 24.892C41.9591 23.8755 41.7397 22.7954 41.7397 21.6518C41.7397 20.5083 41.9591 19.4282 42.3979 18.4117C42.8625 17.3952 43.4819 16.5057 44.2562 15.7433C45.0305 14.9809 45.921 14.3837 46.9276 13.9517C47.96 13.4943 49.0569 13.2656 50.2184 13.2656C52.0509 13.2656 53.6382 13.8119 54.9803 14.9047C56.3483 15.972 57.329 17.3825 57.9227 19.136C57.1226 19.4155 56.2063 19.7586 55.1739 20.1652C54.1415 20.5718 53.0704 21.0038 51.9605 21.4612C50.8507 21.8933 49.7409 22.3253 48.631 22.7573C47.5212 23.1893 46.4888 23.5832 45.5338 23.939C45.9726 24.803 46.6049 25.5019 47.4309 26.0356C48.2826 26.5438 49.2247 26.798 50.2571 26.798C50.9539 26.798 51.6508 26.6709 52.3477 26.4168C53.0704 26.1626 53.6511 25.8196 54.0899 25.3875L56.5676 27.7509ZM53.7801 18.3736C53.4704 17.7382 52.98 17.2681 52.309 16.9631C51.6379 16.6328 50.9539 16.4676 50.2571 16.4676C49.5086 16.4676 48.8117 16.6074 48.1665 16.8869C47.547 17.1665 47.005 17.5476 46.5404 18.0305C46.0758 18.4879 45.7016 19.0216 45.4177 19.6315C45.1596 20.2414 45.0305 20.864 45.0305 21.4994C45.0305 21.6264 45.0305 21.7154 45.0305 21.7662C45.0563 21.817 45.0692 21.8551 45.0692 21.8806C45.7403 21.6264 46.463 21.3469 47.2373 21.0419C48.0374 20.7116 48.8246 20.3939 49.5989 20.0889C50.3732 19.7586 51.1217 19.4536 51.8444 19.1741C52.5671 18.8691 53.2123 18.6023 53.7801 18.3736Z" fill="#717A86"/>
<path d="M60.7834 13.6849H63.687C63.7386 14.4727 63.7773 15.1969 63.8031 15.8577C63.8548 16.493 63.9064 17.1283 63.958 17.7637C64.5516 16.3914 65.3904 15.2986 66.4745 14.4854C67.5843 13.6722 68.9393 13.2656 70.5396 13.2656C72.1656 13.2656 73.469 13.7103 74.4498 14.5997C75.4306 15.4892 75.9468 16.6328 75.9984 18.0305V29.6188H72.6689V19.5172C72.6173 18.7039 72.3334 18.0178 71.8172 17.4587C71.301 16.8742 70.4879 16.5565 69.3781 16.5057C68.6038 16.5057 67.894 16.6455 67.2488 16.925C66.6035 17.1792 66.0486 17.5349 65.584 17.9924C65.1194 18.4498 64.7452 18.9962 64.4613 19.6315C64.2032 20.2668 64.0741 20.9657 64.0741 21.7281V29.6188H60.7834V13.6849Z" fill="#717A86"/>
<path d="M83.8107 29.6188H80.5199V0H83.8107V29.6188Z" fill="#717A86"/>
<path d="M87.3737 21.8043C87.3737 20.6353 87.5931 19.5426 88.0318 18.526C88.4964 17.4841 89.1159 16.582 89.8902 15.8196C90.6645 15.0318 91.5549 14.4091 92.5615 13.9517C93.5939 13.4943 94.6908 13.2656 95.8523 13.2656C96.6266 13.2656 97.3364 13.3672 97.9816 13.5705C98.6269 13.7484 99.1818 13.9771 99.6464 14.2567C100.111 14.5362 100.485 14.8285 100.769 15.1334C101.053 15.4384 101.247 15.7052 101.35 15.9339L101.505 13.6849H104.679V29.6188H101.35V27.5985C101.221 27.8018 101.014 28.0432 100.73 28.3227C100.446 28.6023 100.072 28.8691 99.6077 29.1233C99.1689 29.352 98.6398 29.5553 98.0203 29.7332C97.4009 29.9111 96.6911 30 95.891 30C94.6521 30 93.5036 29.784 92.4454 29.352C91.413 28.8945 90.5225 28.2973 89.774 27.5604C89.0255 26.798 88.4319 25.9212 87.9931 24.9301C87.5802 23.939 87.3737 22.8971 87.3737 21.8043ZM90.7032 21.6137C90.7032 22.3507 90.8322 23.0368 91.0903 23.6722C91.3742 24.3075 91.7485 24.8539 92.2131 25.3113C92.6777 25.7687 93.2326 26.1372 93.8778 26.4168C94.5231 26.6709 95.2328 26.798 96.0072 26.798C96.7815 26.798 97.4912 26.6709 98.1365 26.4168C98.8076 26.1372 99.3754 25.7687 99.84 25.3113C100.33 24.8285 100.705 24.2821 100.963 23.6722C101.221 23.0368 101.35 22.3507 101.35 21.6137C101.35 20.8767 101.221 20.2033 100.963 19.5934C100.705 18.9581 100.33 18.4117 99.84 17.9543C99.3754 17.4968 98.8076 17.141 98.1365 16.8869C97.4912 16.6074 96.7815 16.4676 96.0072 16.4676C95.2328 16.4676 94.5231 16.6074 93.8778 16.8869C93.2326 17.141 92.6777 17.4968 92.2131 17.9543C91.7485 18.4117 91.3742 18.9581 91.0903 19.5934C90.8322 20.2033 90.7032 20.8767 90.7032 21.6137Z" fill="#717A86"/>
<path d="M109.328 13.6849H112.232C112.284 14.4727 112.322 15.1969 112.348 15.8577C112.4 16.493 112.452 17.1283 112.503 17.7637C113.097 16.3914 113.936 15.2986 115.02 14.4854C116.129 13.6722 117.484 13.2656 119.085 13.2656C120.711 13.2656 122.014 13.7103 122.995 14.5997C123.976 15.4892 124.492 16.6328 124.544 18.0305V29.6188H121.214V19.5172C121.162 18.7039 120.879 18.0178 120.362 17.4587C119.846 16.8742 119.033 16.5565 117.923 16.5057C117.149 16.5057 116.439 16.6455 115.794 16.925C115.149 17.1792 114.594 17.5349 114.129 17.9924C113.665 18.4498 113.29 18.9962 113.006 19.6315C112.748 20.2668 112.619 20.9657 112.619 21.7281V29.6188H109.328V13.6849Z" fill="#717A86"/>
<path d="M127.942 21.6518C127.942 20.4066 128.149 19.2757 128.562 18.2592C129.001 17.2173 129.594 16.3278 130.343 15.5908C131.091 14.8539 131.969 14.2821 132.975 13.8755C134.008 13.4689 135.118 13.2656 136.305 13.2656C137.105 13.2656 137.815 13.3672 138.434 13.5705C139.079 13.7484 139.621 13.9771 140.06 14.2567C140.525 14.5108 140.912 14.803 141.222 15.1334C141.531 15.4638 141.764 15.756 141.918 16.0102V0H145.248V29.6188H141.918V28.4371C141.918 28.2846 141.931 28.1194 141.957 27.9415C141.983 27.7382 141.996 27.5731 141.996 27.446C141.738 27.751 141.428 28.0559 141.067 28.3609C140.731 28.6404 140.331 28.9072 139.867 29.1614C139.402 29.4155 138.86 29.6188 138.241 29.7713C137.647 29.9238 136.963 30 136.189 30C134.898 30 133.737 29.784 132.704 29.352C131.698 28.8945 130.833 28.2973 130.11 27.5604C129.413 26.798 128.871 25.9085 128.484 24.892C128.123 23.8755 127.942 22.7954 127.942 21.6518ZM131.272 21.6137C131.272 22.3507 131.401 23.0368 131.659 23.6722C131.943 24.3075 132.317 24.8539 132.782 25.3113C133.246 25.7687 133.801 26.1372 134.446 26.4168C135.092 26.6709 135.801 26.798 136.576 26.798C137.35 26.798 138.06 26.6709 138.705 26.4168C139.376 26.1372 139.944 25.7687 140.409 25.3113C140.899 24.8285 141.273 24.2821 141.531 23.6722C141.789 23.0368 141.918 22.3507 141.918 21.6137C141.918 20.8767 141.789 20.2033 141.531 19.5934C141.273 18.9581 140.899 18.4117 140.409 17.9543C139.944 17.4968 139.376 17.141 138.705 16.8869C138.06 16.6074 137.35 16.4676 136.576 16.4676C135.801 16.4676 135.092 16.6074 134.446 16.8869C133.801 17.141 133.246 17.4968 132.782 17.9543C132.317 18.4117 131.943 18.9581 131.659 19.5934C131.401 20.2033 131.272 20.8767 131.272 21.6137Z" fill="#717A86"/>
<path d="M149.664 27.4841C149.664 26.8742 149.883 26.3659 150.322 25.9593C150.787 25.5273 151.303 25.3113 151.871 25.3113C152.387 25.3113 152.864 25.5273 153.303 25.9593C153.768 26.3659 154 26.8742 154 27.4841C154 28.1449 153.768 28.6658 153.303 29.047C152.864 29.4282 152.387 29.6188 151.871 29.6188C151.303 29.6188 150.787 29.4282 150.322 29.047C149.883 28.6658 149.664 28.1449 149.664 27.4841Z" fill="#717A86"/>
</svg>
